PathFileType	4	(X/Y/Z)	/Users/itak/Documents/Research/Walk-IL/dataset/trc/00419_00012.trc
DataRate	CameraRate	NumFrames	NumMarkers	Units	OrigDataRate	OrigDataStartFrame	OrigNumFrames
100.000000	100.000000	4	54	mm	100.000000	0	524
Frame#	Time	RPSI			LPSI			L3			STRN			T10			C7			CLAV			RBAK			LBAK			LSHO			LUPA			LAEL			LAOL			LWTS			LWPS			LFRA			LIFD			LHPS			LHTS			RSHO			RUPA			RAEL			RAOL			RWTS			RWPS			RFRA			RIFD			RHTS			RHPS			RBHD			LFHD			RFHD			LBHD			LHIP			RHIP			RASI			LASI			LKNE			LTHI			LANK			LTIP			LTOE			LMT1			LMT5			LHEE			RKNE			RTHI			RANK			RTIP			RTOE			RMT1			RMT5			RHEE			*53			
		X1	Y1	Z1	X2	Y2	Z2	X3	Y3	Z3	X4	Y4	Z4	X5	Y5	Z5	X6	Y6	Z6	X7	Y7	Z7	X8	Y8	Z8	X9	Y9	Z9	X10	Y10	Z10	X11	Y11	Z11	X12	Y12	Z12	X13	Y13	Z13	X14	Y14	Z14	X15	Y15	Z15	X16	Y16	Z16	X17	Y17	Z17	X18	Y18	Z18	X19	Y19	Z19	X20	Y20	Z20	X21	Y21	Z21	X22	Y22	Z22	X23	Y23	Z23	X24	Y24	Z24	X25	Y25	Z25	X26	Y26	Z26	X27	Y27	Z27	X28	Y28	Z28	X29	Y29	Z29	X30	Y30	Z30	X31	Y31	Z31	X32	Y32	Z32	X33	Y33	Z33	X34	Y34	Z34	X35	Y35	Z35	X36	Y36	Z36	X37	Y37	Z37	X38	Y38	Z38	X39	Y39	Z39	X40	Y40	Z40	X41	Y41	Z41	X42	Y42	Z42	X43	Y43	Z43	X44	Y44	Z44	X45	Y45	Z45	X46	Y46	Z46	X47	Y47	Z47	X48	Y48	Z48	X49	Y49	Z49	X50	Y50	Z50	X51	Y51	Z51	X52	Y52	Z52	X53	Y53	Z53	X54	Y54	Z54	

1	0	-1559.894165039062	992.1708984375	-471.0349426269531	-1576.475830078125	984.3092651367188	-601.3402099609375	-1566.83251953125	1058.1689453125	-533.0140380859375	-1334.947387695312	1214.339477539062	-549.3729858398438	-1577.470092773438	1161.4580078125	-536.20166015625	-1546.702392578125	1410.694091796875	-550.8099365234375	-1388.753784179688	1333.234130859375	-547.9085693359375	-1581.2587890625	1264.161865234375	-479.0789184570312	-1560.567138671875	1371.915283203125	-655.4824829101562	-1474.188842773438	1387.742919921875	-705.6214599609375	-1483.554809570312	1270.58642578125	-777.381103515625	-1443.093383789062	1071.854614257812	-791.738037109375	-1508.754638671875	1050.941650390625	-741.8326416015625	-1349.512939453125	865.3423461914062	-706.9500732421875	-1377.257690429688	842.3468627929688	-780.4764404296875	-1414.923950195312	968.5493774414062	-791.2803344726562	-1338.682861328125	686.0179443359375	-690.61474609375	-1361.269409179688	759.6242065429688	-759.5807495117188	-1322.155029296875	768.6046752929688	-710.0359497070312	-1476.548828125	1390.061401367188	-392.5599365234375	-1478.918823242188	1324.194580078125	-332.4129028320312	-1444.782104492188	1060.05859375	-297.7957763671875	-1486.899780273438	1054.127563476562	-379.7873229980469	-1333.963256835938	847.019775390625	-387.8461608886719	-1345.74267578125	832.543701171875	-316.5276489257812	-1414.028564453125	994.986328125	-294.7026062011719	-1333.76123046875	671.5670776367188	-391.8700561523438	-1310.876098632812	741.5559692382812	-384.52001953125	-1342.629150390625	743.65869140625	-324.0227966308594	-1520.776489257812	1602.06494140625	-477.1444091796875	-1359.8623046875	1607.800170898438	-594.662353515625	-1387.299560546875	1614.090942382812	-475.3290405273438	-1501.110961914062	1591.617553710938	-638.1615600585938	-1499.231567382812	971.2054443359375	-721.152587890625	-1467.213256835938	966.827880859375	-363.4166564941406	-1340.358032226562	972.9857177734375	-429.7467956542969	-1382.072631835938	967.6005249023438	-689.3576049804688	-1453.259643554688	477.3287963867188	-706.9984130859375	-1460.380737304688	619.2366943359375	-717.273681640625	-1536.035400390625	44.53730010986328	-660.62939453125	-1494.900024414062	245.6254119873047	-696.7119140625	-1315.57373046875	45.05348968505859	-610.42578125	-1395.873291015625	45.29581451416016	-574.5758666992188	-1409.77587890625	42.76203155517578	-679.256591796875	-1570.21826171875	41.85554504394531	-601.7800903320312	-1442.681640625	476.5028686523438	-386.6788024902344	-1398.214599609375	741.861572265625	-365.0875854492188	-1497.78564453125	59.18981170654297	-415.1905517578125	-1437.881103515625	351.0042114257812	-401.7690124511719	-1320.94580078125	41.78491973876953	-482.6592712402344	-1397.707275390625	44.34857559204102	-510.7254333496094	-1413.471557617188	48.66678237915039	-412.1846923828125	-1573.0478515625	45.77724838256836	-465.7013244628906	nan	nan	nan	
2	0.01	-1559.872924804688	992.1744995117188	-471.0452880859375	-1576.44970703125	984.31298828125	-601.3638916015625	-1566.804809570312	1058.167846679688	-533.0361328125	-1334.909423828125	1214.33984375	-549.3635864257812	-1577.372192382812	1161.46044921875	-536.19580078125	-1546.656494140625	1410.700073242188	-550.8257446289062	-1388.741577148438	1333.239624023438	-547.91650390625	-1581.214965820312	1264.170043945312	-479.0902404785156	-1560.497436523438	1371.921264648438	-655.5025634765625	-1474.105102539062	1387.744140625	-705.6268920898438	-1483.468872070312	1270.586547851562	-777.3894653320312	-1442.998779296875	1071.853637695312	-791.7393188476562	-1508.663452148438	1050.936279296875	-741.8483276367188	-1349.49267578125	865.3497314453125	-706.9313354492188	-1377.168090820312	842.3477783203125	-780.46337890625	-1414.842163085938	968.549560546875	-791.274169921875	-1338.703491210938	685.9947509765625	-690.6109619140625	-1361.131103515625	759.6022338867188	-759.5604248046875	-1322.24462890625	768.5524291992188	-710.10595703125	-1476.525756835938	1390.06396484375	-392.5650329589844	-1478.905395507812	1324.192749023438	-332.4204406738281	-1444.786376953125	1060.056518554688	-297.7968444824219	-1486.8935546875	1054.127075195312	-379.7905883789062	-1333.960693359375	847.0137329101562	-387.8190612792969	-1345.761962890625	832.5309448242188	-316.5198974609375	-1414.041259765625	994.97900390625	-294.6939392089844	-1333.765869140625	671.5673217773438	-391.8671264648438	-1310.896240234375	741.5369873046875	-384.48876953125	-1342.639404296875	743.651611328125	-324.015625	-1520.677368164062	1602.086181640625	-477.1607971191406	-1359.708251953125	1607.759399414062	-594.6934814453125	-1387.200317382812	1614.080200195312	-475.3501586914062	-1501.018676757812	1591.632202148438	-638.190673828125	-1499.164184570312	971.2001342773438	-721.1593627929688	-1467.211791992188	966.8280639648438	-363.4238586425781	-1340.343872070312	972.9827270507812	-429.736572265625	-1382.039184570312	967.6039428710938	-689.3370971679688	-1453.255126953125	477.3277893066406	-706.9998168945312	-1460.341918945312	619.2308349609375	-717.2737426757812	-1536.047973632812	44.55448532104492	-660.6244506835938	-1494.897583007812	245.6245880126953	-696.7130737304688	-1315.562255859375	45.05096054077148	-610.4264526367188	-1395.863403320312	45.29788208007812	-574.5684814453125	-1409.775390625	42.76279449462891	-679.2568969726562	-1570.208374023438	41.84446716308594	-601.7757568359375	-1442.681030273438	476.5116577148438	-386.6793212890625	-1398.231811523438	741.8755493164062	-365.0751647949219	-1497.791625976562	59.19401168823242	-415.1905517578125	-1437.839477539062	350.9757690429688	-401.7605590820312	-1320.949951171875	41.78102874755859	-482.6653747558594	-1397.707763671875	44.34814071655273	-510.7212829589844	-1413.458129882812	48.67523574829102	-412.1923828125	-1573.051879882812	45.78143310546875	-465.7044677734375	nan	nan	nan	
3	0.02	-1559.848999023438	992.1796875	-471.0601196289062	-1576.41845703125	984.3189086914062	-601.3928833007812	-1566.770385742188	1058.166137695312	-533.06494140625	-1334.856201171875	1214.340698242188	-549.3508911132812	-1577.264404296875	1161.463745117188	-536.1932983398438	-1546.595825195312	1410.707275390625	-550.8447265625	-1388.719848632812	1333.2431640625	-547.9219970703125	-1581.1640625	1264.179809570312	-479.1065063476562	-1560.409912109375	1371.927978515625	-655.5275268554688	-1473.999389648438	1387.745483398438	-705.63330078125	-1483.368530273438	1270.585815429688	-777.3990478515625	-1442.880249023438	1071.85107421875	-791.7401123046875	-1508.549926757812	1050.928955078125	-741.866455078125	-1349.467651367188	865.3570556640625	-706.9091186523438	-1377.063720703125	842.3485717773438	-780.4488525390625	-1414.735595703125	968.5491333007812	-791.2670288085938	-1338.722045898438	685.9682006835938	-690.6092529296875	-1360.977905273438	759.5787963867188	-759.5362548828125	-1322.308349609375	768.5062255859375	-710.1631469726562	-1476.498413085938	1390.065673828125	-392.5723571777344	-1478.888916015625	1324.189575195312	-332.4295349121094	-1444.792114257812	1060.052734375	-297.7982482910156	-1486.884643554688	1054.126708984375	-379.7965698242188	-1333.955200195312	847.0083618164062	-387.7895202636719	-1345.78466796875	832.5159301757812	-316.5108032226562	-1414.056884765625	994.9693603515625	-294.6847534179688	-1333.772094726562	671.567138671875	-391.8633728027344	-1310.919799804688	741.507080078125	-384.4532470703125	-1342.650512695312	743.6400146484375	-324.0031433105469	-1520.543334960938	1602.109008789062	-477.1809387207031	-1359.5234375	1607.704345703125	-594.7237548828125	-1387.071044921875	1614.063354492188	-475.3757019042969	-1500.892333984375	1591.650390625	-638.228271484375	-1499.068481445312	971.192626953125	-721.166015625	-1467.211181640625	966.8275146484375	-363.4333801269531	-1340.32568359375	972.9779663085938	-429.7213439941406	-1382.0048828125	967.6029052734375	-689.3215942382812	-1453.246948242188	477.3258666992188	-707.001708984375	-1460.295166015625	619.2244262695312	-717.2745361328125	-1536.059448242188	44.57101821899414	-660.620361328125	-1494.892456054688	245.6232604980469	-696.71484375	-1315.550170898438	45.0505485534668	-610.42822265625	-1395.856689453125	45.29940032958984	-574.5635375976562	-1409.775756835938	42.76267242431641	-679.2568969726562	-1570.189819335938	41.82327270507812	-601.767578125	-1442.680541992188	476.5199890136719	-386.6806335449219	-1398.262451171875	741.8988037109375	-365.0419311523438	-1497.797607421875	59.19989395141602	-415.1906127929688	-1437.81005859375	350.9540100097656	-401.7549743652344	-1320.95263671875	41.77938461303711	-482.6700744628906	-1397.707641601562	44.34732437133789	-510.7171325683594	-1413.4453125	48.68010330200195	-412.1967163085938	-1573.056396484375	45.78589630126953	-465.7077331542969	nan	nan	nan	
4	0.03	-1559.82421875	992.1862182617188	-471.0792846679688	-1576.383666992188	984.3271484375	-601.425537109375	-1566.730224609375	1058.1640625	-533.0990600585938	-1334.788452148438	1214.341796875	-549.3345947265625	-1577.1552734375	1161.467651367188	-536.1954345703125	-1546.521606445312	1410.715454101562	-550.8659057617188	-1388.6875	1333.243896484375	-547.9232788085938	-1581.109130859375	1264.190307617188	-479.1277465820312	-1560.30859375	1371.934814453125	-655.5563354492188	-1473.87646484375	1387.746826171875	-705.640380859375	-1483.261352539062	1270.583862304688	-777.4089965820312	-1442.74365234375	1071.846923828125	-791.740234375	-1508.420776367188	1050.919921875	-741.885986328125	-1349.437744140625	865.3634643554688	-706.8849487304688	-1376.953369140625	842.3491821289062	-780.43408203125	-1414.607055664062	968.5478515625	-791.2595825195312	-1338.735595703125	685.9389038085938	-690.611083984375	-1360.823974609375	759.5562744140625	-759.5097045898438	-1322.329956054688	768.4746704101562	-710.195556640625	-1476.46826171875	1390.06591796875	-392.5819702148438	-1478.8701171875	1324.18505859375	-332.4397277832031	-1444.7998046875	1060.046508789062	-297.8002014160156	-1486.873168945312	1054.126831054688	-379.8059997558594	-1333.947387695312	847.0040283203125	-387.7600402832031	-1345.809204101562	832.4998779296875	-316.5009155273438	-1414.074584960938	994.957275390625	-294.6761169433594	-1333.77978515625	671.5665283203125	-391.8591918945312	-1310.947998046875	741.4635620117188	-384.4166259765625	-1342.663696289062	743.624267578125	-323.9862365722656	-1520.374389648438	1602.129760742188	-477.2034301757812	-1359.320068359375	1607.636108398438	-594.748046875	-1386.918701171875	1614.040283203125	-475.4032592773438	-1500.734497070312	1591.671020507812	-638.2724609375	-1498.943969726562	971.18310546875	-721.1717529296875	-1467.212768554688	966.8257446289062	-363.4449157714844	-1340.302612304688	972.970703125	-429.701171875	-1381.97216796875	967.5963134765625	-689.314208984375	-1453.234741210938	477.3230285644531	-707.0042114257812	-1460.243041992188	619.2180786132812	-717.2760620117188	-1536.068115234375	44.58467864990234	-660.6177978515625	-1494.88427734375	245.6215209960938	-696.71728515625	-1315.53857421875	45.05233764648438	-610.4309692382812	-1395.858154296875	45.29761123657227	-574.56201171875	-1409.777465820312	42.76120758056641	-679.2562866210938	-1570.160400390625	41.78916168212891	-601.75439453125	-1442.680786132812	476.5266418457031	-386.6832885742188	-1398.3076171875	741.9339599609375	-364.9820861816406	-1497.802612304688	59.20696258544922	-415.19091796875	-1437.802856445312	350.9450988769531	-401.7546081542969	-1320.952758789062	41.78038024902344	-482.6725769042969	-1397.70703125	44.34577560424805	-510.7131958007812	-1413.435791015625	48.68009567260742	-412.1957092285156	-1573.060546875	45.78989410400391	-465.7108764648438	nan	nan	nan	
